<svg width="27" height="21" viewBox="0 0 27 21" fill="none" xmlns="http://www.w3.org/2000/svg">
<path d="M25.92 3.66219H13.8038L9.84488 0.0704267C9.7945 0.0256986 9.72825 0.000561163 9.65925 0H1.08C0.482625 0 0 0.457774 0 1.02439V19.9756C0 20.5422 0.482625 21 1.08 21H25.92C26.5174 21 27 20.5422 27 19.9756V4.68659C27 4.11997 26.5174 3.66219 25.92 3.66219ZM17.55 12.5808C17.55 12.7024 17.4353 12.8049 17.2969 12.8049H14.445V15.5227C14.445 15.6476 14.337 15.75 14.2088 15.75H12.7913C12.663 15.75 12.555 15.6476 12.555 15.5227V12.8049H9.70313C9.56475 12.8049 9.45 12.7024 9.45 12.5808V11.2363C9.45 11.1146 9.56475 11.0122 9.70313 11.0122H12.555V8.29436C12.555 8.16951 12.663 8.06707 12.7913 8.06707H14.2088C14.337 8.06707 14.445 8.16951 14.445 8.29436V11.0122H17.2969C17.4353 11.0122 17.55 11.1146 17.55 11.2363V12.5808Z" fill="#6A52F0"/>
</svg>
