<svg width="21" height="21" viewBox="0 0 21 21" fill="none" xmlns="http://www.w3.org/2000/svg">
<path d="M20.2182 4.32354L16.622 0.714269C16.1526 0.271798 15.5375 0.0179141 14.8938 0.000912538C14.2501 -0.016089 13.6226 0.204978 13.1307 0.622061L1.31803 12.4773C0.893781 12.9067 0.629623 13.4695 0.569898 14.0712L0.00551644 19.5642C-0.0121645 19.7571 0.0127803 19.9516 0.0785726 20.1337C0.144365 20.3159 0.249384 20.4812 0.386146 20.618C0.508787 20.7401 0.654235 20.8366 0.814148 20.9022C0.974062 20.9678 1.1453 21.001 1.31803 21H1.43616L6.90934 20.4994C7.5089 20.4395 8.06965 20.1744 8.49749 19.7486L20.3101 7.8933C20.7686 7.40719 21.0164 6.7585 20.9992 6.08937C20.9819 5.42024 20.7011 4.78525 20.2182 4.32354ZM6.67309 17.8649L2.73555 18.2337L3.08993 14.282L10.5056 6.93171L14.0494 10.4883L6.67309 17.8649ZM15.7557 8.72317L12.2382 5.19293L14.7976 2.55842L18.3807 6.15453L15.7557 8.72317Z" fill="#6A52F0"/>
</svg>
