<svg width="33" height="34" viewBox="0 0 33 34" fill="none" xmlns="http://www.w3.org/2000/svg">
<path d="M16.7707 7.72607C15.6244 7.72607 14.5038 8.06601 13.5506 8.7029C12.5974 9.33979 11.8545 10.245 11.4158 11.3041C10.9771 12.3632 10.8623 13.5286 11.086 14.653C11.3096 15.7773 11.8617 16.8101 12.6723 17.6207C13.4829 18.4313 14.5156 18.9833 15.64 19.207C16.7643 19.4306 17.9297 19.3158 18.9888 18.8771C20.0479 18.4384 20.9532 17.6955 21.5901 16.7424C22.2269 15.7892 22.5669 14.6686 22.5669 13.5222C22.5669 11.985 21.9562 10.5107 20.8692 9.42372C19.7822 8.33674 18.308 7.72607 16.7707 7.72607Z" fill="white"/>
<path d="M16.7707 0.770752C13.5609 0.770752 10.4231 1.72258 7.75423 3.50586C5.08536 5.28914 3.00523 7.82379 1.77688 10.7893C0.548536 13.7548 0.227144 17.0179 0.85335 20.1661C1.47956 23.3142 3.02523 26.206 5.29492 28.4757C7.56461 30.7454 10.4564 32.291 13.6045 32.9172C16.7527 33.5434 20.0158 33.2221 22.9813 31.9937C25.9468 30.7654 28.4815 28.6852 30.2647 26.0164C32.048 23.3475 32.9998 20.2097 32.9998 16.9999C32.9949 12.6972 31.2835 8.57208 28.241 5.52959C25.1985 2.48709 21.0734 0.775661 16.7707 0.770752ZM26.0352 27.3472C26.0121 25.8266 25.3926 24.3761 24.3102 23.3079C23.2278 22.2398 21.769 21.6397 20.2484 21.6368H13.293C11.7723 21.6397 10.3136 22.2398 9.23117 23.3079C8.14875 24.3761 7.52924 25.8266 7.50614 27.3472C5.40396 25.4701 3.9215 22.9988 3.25507 20.2604C2.58863 17.5221 2.76966 14.6459 3.77417 12.0128C4.77869 9.3796 6.55931 7.11365 8.88025 5.51496C11.2012 3.91627 13.953 3.06025 16.7713 3.06025C19.5895 3.06025 22.3413 3.91627 24.6623 5.51496C26.9832 7.11365 28.7638 9.3796 29.7683 12.0128C30.7729 14.6459 30.9539 17.5221 30.2874 20.2604C29.621 22.9988 28.1386 25.4701 26.0364 27.3472H26.0352Z" fill="white"/>
</svg>
