<svg width="45" height="18" viewBox="0 0 45 18" fill="none" xmlns="http://www.w3.org/2000/svg">
<path d="M3.66 2.2V17H0.24V2.2H3.66ZM17.1584 5.84V17H13.7384V15.48C13.3918 15.9733 12.9184 16.3733 12.3184 16.68C11.7318 16.9733 11.0784 17.12 10.3584 17.12C9.5051 17.12 8.75177 16.9333 8.09844 16.56C7.4451 16.1733 6.93844 15.62 6.57844 14.9C6.21844 14.18 6.03844 13.3333 6.03844 12.36V5.84H9.43844V11.9C9.43844 12.6467 9.63177 13.2267 10.0184 13.64C10.4051 14.0533 10.9251 14.26 11.5784 14.26C12.2451 14.26 12.7718 14.0533 13.1584 13.64C13.5451 13.2267 13.7384 12.6467 13.7384 11.9V5.84H17.1584ZM24.635 13.8L27.055 5.84H30.695L26.735 17H22.515L18.555 5.84H22.215L24.635 13.8Z" fill="#6A52F0"/>
<path d="M33.8545 4.68C33.2545 4.68 32.7612 4.50667 32.3745 4.16C32.0012 3.8 31.8145 3.36 31.8145 2.84C31.8145 2.30667 32.0012 1.86667 32.3745 1.52C32.7612 1.16 33.2545 0.979999 33.8545 0.979999C34.4412 0.979999 34.9212 1.16 35.2945 1.52C35.6812 1.86667 35.8745 2.30667 35.8745 2.84C35.8745 3.36 35.6812 3.8 35.2945 4.16C34.9212 4.50667 34.4412 4.68 33.8545 4.68ZM35.5545 5.84V17H32.1345V5.84H35.5545ZM44.253 14.1V17H42.513C41.273 17 40.3063 16.7 39.613 16.1C38.9196 15.4867 38.573 14.4933 38.573 13.12V8.68H37.213V5.84H38.573V3.12H41.993V5.84H44.233V8.68H41.993V13.16C41.993 13.4933 42.073 13.7333 42.233 13.88C42.393 14.0267 42.6596 14.1 43.033 14.1H44.253Z" fill="white"/>
</svg>
